<?xml version="1.0" encoding="UTF-8" standalone="no"?>
<svg
   id="Layer_1"
   data-name="Layer 1"
   viewBox="0 0 1234 320"
   version="1.1"
   sodipodi:docname="TechNative_logo_white.svg"
   inkscape:version="1.3 (0e150ed6c4, 2023-07-21)"
   xmlns:inkscape="http://www.inkscape.org/namespaces/inkscape"
   xmlns:sodipodi="http://sodipodi.sourceforge.net/DTD/sodipodi-0.dtd"
   xmlns="http://www.w3.org/2000/svg"
   xmlns:svg="http://www.w3.org/2000/svg">
  <sodipodi:namedview
     id="namedview13"
     pagecolor="#ffffff"
     bordercolor="#000000"
     borderopacity="0.25"
     inkscape:showpageshadow="2"
     inkscape:pageopacity="0.0"
     inkscape:pagecheckerboard="0"
     inkscape:deskcolor="#d1d1d1"
     inkscape:zoom="1.1888169"
     inkscape:cx="617"
     inkscape:cy="160.24335"
     inkscape:window-width="2560"
     inkscape:window-height="1374"
     inkscape:window-x="0"
     inkscape:window-y="29"
     inkscape:window-maximized="1"
     inkscape:current-layer="Layer_1" />
  <defs
     id="defs1">
    <style
       id="style1">.cls-1{fill:#112f41;}</style>
  </defs>
  <path
     class="cls-1"
     d="M197.9,37.73v6.19a17.55,17.55,0,0,1-17.5,17.5h0a17.55,17.55,0,0,1-17.5-17.5V32.08c-1,0-2-.08-3-.08a127.82,127.82,0,0,0-127,143.7,17.47,17.47,0,0,1,22.43,16.78v23.84a17.38,17.38,0,0,1-4.13,11.24A127.9,127.9,0,0,0,159.93,288c3.37,0,6.7-.17,10-.43v-14.8a17.51,17.51,0,0,1,35,0v7.07a128,128,0,0,0-7-242.11Zm45,173.28h0a15.17,15.17,0,0,1-12.76-7A82.34,82.34,0,0,1,78.18,160a16.42,16.42,0,0,1-16.37-16.37V121.34a16.36,16.36,0,0,1,30.74-7.82A82.35,82.35,0,0,1,242.88,160a15.22,15.22,0,0,1,15.17,15.18v20.66A15.22,15.22,0,0,1,242.88,211Z"
     id="path1"
     style="fill:#ffffff;fill-opacity:1" />
  <polygon
     class="cls-1"
     points="179.97 157.89 179.97 157.89 179.97 157.89 179.97 157.89"
     id="polygon1"
     style="fill:#ffffff;fill-opacity:1" />
  <polygon
     class="cls-1"
     points="186.39 202.07 186.39 202.07 186.39 202.08 186.39 202.07"
     id="polygon2"
     style="fill:#ffffff;fill-opacity:1" />
  <polygon
     class="cls-1"
     points="122.18 158.68 122.18 158.67 122.17 158.67 122.18 158.68"
     id="polygon3"
     style="fill:#ffffff;fill-opacity:1" />
  <polygon
     class="cls-1"
     points="133.47 202.08 133.47 202.07 133.47 202.07 133.47 202.08"
     id="polygon4"
     style="fill:#ffffff;fill-opacity:1" />
  <path
     class="cls-1"
     d="M421.35,104.49V135.9H403.22l-1-13.19H380.55v83.06l12.63,2.43v14.17h-48.9V208.2l12.63-2.43V122.71H335.29l-1,13.19H316.26V104.49Z"
     id="path4"
     style="fill:#ffffff;fill-opacity:1" />
  <path
     class="cls-1"
     d="M464.34,224.07q-18.94,0-30.28-12.14t-11.33-30.85v-3.24q0-19.5,10.73-32.14t28.78-12.55q17.73,0,27.53,10.69t9.79,28.9v12.88h-52.3l-.16.48a22.82,22.82,0,0,0,5.79,14.25q5.13,5.58,14,5.59a45.61,45.61,0,0,0,13-1.58,59.6,59.6,0,0,0,11.33-5l6.4,14.57a46.3,46.3,0,0,1-14.05,7.21A59.9,59.9,0,0,1,464.34,224.07Zm-2.1-72.7a12.32,12.32,0,0,0-10.37,5c-2.53,3.35-4.1,7.74-4.69,13.2l.24.4h29v-2.1c0-5-1.18-9-3.53-12S467,151.37,462.24,151.37Z"
     id="path5"
     style="fill:#ffffff;fill-opacity:1" />
  <path
     class="cls-1"
     d="M551.86,205.94q6.32,0,10.12-3.69a13,13,0,0,0,3.81-9.83h21.37l.25.48q.32,13.28-10,22.23t-25.59,8.94q-19.59,0-30.2-12.39t-10.6-31.81v-2.43q0-19.35,10.89-31.82t31-12.47a53.83,53.83,0,0,1,19,3.16,37.49,37.49,0,0,1,14,8.91l.33,23.39H567.17l-3.89-13.68a14.72,14.72,0,0,0-4.37-2.55,16.27,16.27,0,0,0-5.91-1q-10,0-14.17,7.28t-4.13,18.79v2.43q0,11.73,3.81,18.9T551.86,205.94Z"
     id="path6"
     style="fill:#ffffff;fill-opacity:1" />
  <path
     class="cls-1"
     d="M596.8,208.2l11.41-2.43v-93l-12.63-2.43V96.07h36.19v49.87a29.89,29.89,0,0,1,10.12-9.43,26.69,26.69,0,0,1,13.28-3.36q13.77,0,21.58,9.11t7.81,28.13v35.38l11.34,2.43v14.17H650.72V208.2l10.2-2.43V170.23q0-10.2-3.6-14.45t-10.73-4.25a19.54,19.54,0,0,0-8.62,1.78,17.19,17.19,0,0,0-6.2,5v47.44L642,208.2v14.17H596.8Z"
     id="path7"
     style="fill:#ffffff;fill-opacity:1" />
  <path
     class="cls-1"
     d="M823.41,104.49v14.25l-12.63,2.43v101.2H787.22L739.61,143l-.48.08v62.66l12.63,2.43v14.17H702.94V208.2l12.55-2.43v-84.6l-12.55-2.43V104.49h36.19l47.6,79.34.49-.08V121.17l-12.63-2.43V104.49h48.82Z"
     id="path8"
     style="fill:#ffffff;fill-opacity:1" />
  <path
     class="cls-1"
     d="M887.37,222.37a44.66,44.66,0,0,1-1.7-4.49,34.74,34.74,0,0,1-1.13-4.66,32.6,32.6,0,0,1-10.24,7.86,30.75,30.75,0,0,1-13.81,3q-12.87,0-20.44-7T832.48,198q0-12.3,9.88-19t29-6.72H883.4v-8.58q0-6.31-3.64-9.8T869,150.4a25.5,25.5,0,0,0-7.2.93,18.49,18.49,0,0,0-5.1,2.23L855.15,163H837.34l.08-19.43a66.24,66.24,0,0,1,14.86-7.37,53.75,53.75,0,0,1,18.25-3q16.28,0,26.44,8t10.16,22.71V200c0,1.35,0,2.62,0,3.8a28,28,0,0,0,.28,3.4l7.21,1v14.17Zm-20.48-15.78a20.44,20.44,0,0,0,9.71-2.31,18.66,18.66,0,0,0,6.8-5.79V185.13H871.34q-7.53,0-11.41,3.52a11,11,0,0,0-3.89,8.46,8.76,8.76,0,0,0,2.87,7Q861.79,206.59,866.89,206.59Z"
     id="path9"
     style="fill:#ffffff;fill-opacity:1" />
  <path
     class="cls-1"
     d="M951.09,113.31v21.46h15.38v16.6H951.09V196q0,5.1,2.1,7.28a7.49,7.49,0,0,0,5.67,2.19,40.29,40.29,0,0,0,4.25-.2,38.82,38.82,0,0,0,4.09-.69l2,17.08a57.32,57.32,0,0,1-7.85,1.83,55.31,55.31,0,0,1-8.42.6q-12.23,0-18.83-6.72t-6.59-21.29V151.37H914.65v-16.6h12.88V113.31Z"
     id="path10"
     style="fill:#ffffff;fill-opacity:1" />
  <rect
     class="cls-1"
     x="988.73"
     y="96.07"
     width="23.64"
     height="17.73"
     id="rect10"
     style="fill:#ffffff;fill-opacity:1" />
  <polygon
     class="cls-1"
     points="1012.38 205.77 1012.38 134.77 976.1 134.77 976.1 149.02 988.73 151.45 988.73 205.77 977.32 208.2 977.32 222.37 1023.71 222.37 1023.71 208.2 1012.38 205.77"
     id="polygon10"
     style="fill:#ffffff;fill-opacity:1" />
  <path
     class="cls-1"
     d="M1068.64,149l-8.25,1.54L1072,189.74l1.53,8.26h.49l1.7-8.26,11.41-39.1-8.42-1.62V134.77h39.76V149l-7.61,1.21L1085,222.37h-22.59l-25.91-72.14-7.61-1.21V134.77h39.75Z"
     id="path11"
     style="fill:#ffffff;fill-opacity:1" />
  <path
     class="cls-1"
     d="M1166.85,224.07q-18.94,0-30.28-12.14t-11.33-30.85v-3.24q0-19.5,10.73-32.14t28.78-12.55q17.73,0,27.53,10.69t9.79,28.9v12.88h-52.3l-.16.48a22.82,22.82,0,0,0,5.79,14.25q5.13,5.58,14,5.59a45.61,45.61,0,0,0,13-1.58,59.6,59.6,0,0,0,11.33-5l6.4,14.57a46.3,46.3,0,0,1-14.05,7.21A59.9,59.9,0,0,1,1166.85,224.07Zm-2.1-72.7a12.31,12.31,0,0,0-10.37,5c-2.54,3.35-4.1,7.74-4.69,13.2l.24.4h29v-2.1c0-5-1.17-9-3.52-12S1169.5,151.37,1164.75,151.37Z"
     id="path12"
     style="fill:#ffffff;fill-opacity:1" />
  <path
     class="cls-1"
     d="M202.72,112v25.58H188l-.79-10.74H169.49v67.64l10.29,2V208H140V196.46l10.29-2V126.84H132.63l-.79,10.74h-14.7V112Z"
     id="path13"
     style="fill:#ffffff;fill-opacity:1" />
</svg>
